<?xml version="1.0" encoding="UTF-8"?>
<svg xmlns="http://www.w3.org/2000/svg" id="Layer_1" data-name="Layer 1" viewBox="0 0 48 48" width="48" height="48">
    <linearGradient id="CXanuwD9EGkBgTn76_1mxa" x1="9.993" x2="40.615" y1="-299.993" y2="-330.615" gradientTransform="matrix(1 0 0 -1 0 -290)" gradientUnits="userSpaceOnUse">
        <stop offset="0" stop-color="#2aa4f4"/>
        <stop offset="1" stop-color="#007ad9"/>
    </linearGradient>
    <path d="M12,0C5.383,0,0,5.383,0,12s5.383,12,12,12,12-5.383,12-12S18.617,0,12,0Zm5.665,16.587l-.522,.6c-.551,.552-1.277,.813-2,.813-3.714,0-9.143-5.143-9.143-9.143,0-.723,.261-1.449,.813-2l.6-.522c.446-.446,1.17-.446,1.616,0l1,1.302c.446,.446,.446,1.17,0,1.616l-.851,1.069c.901,2.244,2.429,3.71,4.5,4.5l1.069-.851c.446-.446,1.17-.446,1.616,0l1.302,1c.446,.446,.446,1.17,0,1.616Z"/>
</svg>
